<svg width="24" height="27" viewBox="0 0 24 27" fill="none" xmlns="http://www.w3.org/2000/svg">
<path d="M11.9999 16.3196C11.4066 16.3196 10.8266 16.1437 10.3332 15.814C9.83988 15.4844 9.45537 15.0159 9.2283 14.4677C9.00124 13.9195 8.94183 13.3163 9.05759 12.7344C9.17334 12.1524 9.45906 11.6179 9.87862 11.1983C10.2982 10.7788 10.8327 10.493 11.4147 10.3773C11.9966 10.2615 12.5998 10.3209 13.148 10.548C13.6962 10.7751 14.1647 11.1596 14.4944 11.6529C14.824 12.1463 14.9999 12.7263 14.9999 13.3196C14.9991 14.115 14.6827 14.8776 14.1203 15.44C13.5579 16.0024 12.7953 16.3188 11.9999 16.3196ZM11.9999 12.3196C11.8022 12.3196 11.6088 12.3783 11.4444 12.4882C11.2799 12.5981 11.1517 12.7542 11.0761 12.937C11.0004 13.1197 10.9806 13.3208 11.0192 13.5147C11.0577 13.7087 11.153 13.8869 11.2928 14.0267C11.4327 14.1666 11.6109 14.2618 11.8049 14.3004C11.9988 14.339 12.1999 14.3192 12.3826 14.2435C12.5654 14.1678 12.7215 14.0397 12.8314 13.8752C12.9413 13.7108 12.9999 13.5174 12.9999 13.3196C12.9997 13.0545 12.8942 12.8003 12.7068 12.6128C12.5193 12.4253 12.2651 12.3199 11.9999 12.3196ZM16.5971 17.9163C17.5059 17.0072 18.1247 15.849 18.3752 14.5882C18.6258 13.3274 18.4969 12.0206 18.0049 10.833C17.5128 9.64546 16.6797 8.63047 15.6109 7.91636C14.542 7.20225 13.2854 6.8211 11.9999 6.8211C10.7145 6.8211 9.45788 7.20225 8.38902 7.91636C7.32016 8.63047 6.48704 9.64546 5.99499 10.833C5.50294 12.0206 5.37406 13.3274 5.62464 14.5882C5.87522 15.849 6.49401 17.0072 7.40277 17.9163C7.49562 18.0092 7.60585 18.0828 7.72716 18.1331C7.84847 18.1833 7.97849 18.2092 8.1098 18.2092C8.24111 18.2092 8.37113 18.1833 8.49244 18.1331C8.61376 18.0828 8.72398 18.0092 8.81683 17.9163C8.90968 17.8235 8.98333 17.7132 9.03358 17.5919C9.08383 17.4706 9.10969 17.3406 9.10969 17.2093C9.10969 17.078 9.08383 16.948 9.03358 16.8266C8.98333 16.7053 8.90968 16.5951 8.81683 16.5023C8.18781 15.8728 7.75955 15.071 7.58617 14.1981C7.4128 13.3253 7.5021 12.4207 7.84279 11.5986C8.18348 10.7765 8.76026 10.0739 9.50021 9.57958C10.2402 9.08525 11.1101 8.82141 11.9999 8.82141C12.8898 8.82141 13.7597 9.08525 14.4997 9.57958C15.2396 10.0739 15.8164 10.7765 16.1571 11.5986C16.4978 12.4207 16.5871 13.3253 16.4137 14.1981C16.2403 15.071 15.8121 15.8728 15.1831 16.5023C15.0902 16.5951 15.0166 16.7053 14.9663 16.8266C14.9161 16.948 14.8902 17.078 14.8902 17.2093C14.8902 17.3406 14.9161 17.4706 14.9663 17.5919C15.0166 17.7132 15.0902 17.8235 15.1831 17.9163C15.3706 18.1038 15.6249 18.2092 15.8901 18.2092C16.0214 18.2092 16.1514 18.1833 16.2727 18.1331C16.394 18.0828 16.5043 18.0092 16.5971 17.9163ZM19.0649 20.389C19.999 19.4646 20.7397 18.3634 21.2436 17.1496C21.7475 15.9358 22.0047 14.6339 21.9999 13.3196C21.9999 10.6675 20.9464 8.12394 19.071 6.24857C17.1956 4.37321 14.6521 3.31964 11.9999 3.31964C9.34778 3.31964 6.80424 4.37321 4.92887 6.24857C3.05351 8.12394 1.99994 10.6675 1.99994 13.3196C1.99523 14.6339 2.25234 15.9358 2.75627 17.1496C3.2602 18.3634 4.00086 19.4646 4.935 20.389C5.02811 20.4816 5.13854 20.5549 5.25999 20.6049C5.38145 20.6548 5.51154 20.6803 5.64285 20.6799C5.77416 20.6795 5.90411 20.6533 6.02529 20.6027C6.14646 20.5521 6.25648 20.4782 6.34908 20.3851C6.44167 20.292 6.51501 20.1815 6.56493 20.0601C6.61484 19.9386 6.64034 19.8085 6.63998 19.6772C6.63961 19.5459 6.61339 19.416 6.5628 19.2948C6.51222 19.1736 6.43826 19.0636 6.34515 18.971C5.59855 18.2319 5.00665 17.3516 4.60399 16.3813C4.20134 15.411 3.99599 14.3702 3.99994 13.3196C3.99994 11.1979 4.8428 9.16308 6.34309 7.66279C7.84338 6.1625 9.87821 5.31964 11.9999 5.31964C14.1217 5.31964 16.1565 6.1625 17.6568 7.66279C19.1571 9.16308 19.9999 11.1979 19.9999 13.3196C20.0039 14.3702 19.7985 15.411 19.3959 16.3813C18.9932 17.3516 18.4013 18.2319 17.6547 18.971C17.5616 19.0636 17.4877 19.1736 17.4371 19.2948C17.3865 19.416 17.3603 19.5459 17.3599 19.6772C17.3595 19.8085 17.385 19.9386 17.435 20.0601C17.4849 20.1815 17.5582 20.292 17.6508 20.3851C17.7434 20.4782 17.8534 20.5521 17.9746 20.6027C18.0958 20.6533 18.2257 20.6795 18.357 20.6799C18.4883 20.6803 18.6184 20.6548 18.7399 20.6049C18.8613 20.5549 18.9718 20.4816 19.0649 20.389Z" fill="#F9F7F7"/>
</svg>
