<svg width="36" height="28" viewBox="0 0 36 28" fill="none" xmlns="http://www.w3.org/2000/svg">
<path d="M13.0104 6.35538C15.557 6.44568 17.5487 8.57213 17.458 11.1069C17.366 13.6403 15.2285 15.6218 12.6805 15.5303C10.1339 15.44 8.14352 13.3135 8.23418 10.7787C8.32494 8.24531 10.4624 6.26519 13.0104 6.35538Z" fill="#F9F7F7"/>
<path d="M23.1714 2.80066C20.6184 2.80066 18.5562 4.85208 18.5562 7.39201C18.5562 9.93193 20.6182 11.9834 23.1714 11.9834C25.7245 11.9834 27.7866 9.93193 27.7866 7.39201C27.7853 4.85094 25.7245 2.80066 23.1714 2.80066Z" fill="#F9F7F7"/>
<path d="M30.6334 21.6512C30.7638 21.6512 30.8623 21.5863 30.9607 21.5214C31.0591 21.4235 31.0911 21.2938 31.0911 21.1628C30.6654 16.7342 27.2623 13.3488 23.1714 13.3488C20.5865 13.3488 18.229 14.716 16.7245 16.9634C18.5897 17.9402 20.0623 19.6012 20.9139 21.6511L30.6334 21.6512Z" fill="#F9F7F7"/>
<path d="M4.90914 24.6794C4.90914 24.8091 4.94238 24.9401 5.03954 25.0381C5.10474 25.136 5.23642 25.2009 5.36682 25.2009H20.3229C20.4533 25.2009 20.5849 25.136 20.6501 25.0381C20.7486 24.9401 20.7805 24.8104 20.7805 24.6794C20.6821 23.8324 20.5184 23.0515 20.2244 22.3024C20.1912 22.2693 20.1912 22.2375 20.1912 22.2045C19.373 20.0551 17.8018 18.3955 15.9033 17.5167C15.87 17.5167 15.87 17.5167 15.87 17.4837C14.9215 17.0602 13.9396 16.8325 12.8594 16.8325C8.77108 16.8656 5.33472 20.2511 4.90894 24.6797L4.90914 24.6794Z" fill="#F9F7F7"/>
</svg>
