<svg width="22" height="22" viewBox="0 0 22 22" fill="none" xmlns="http://www.w3.org/2000/svg">
<path fill-rule="evenodd" clip-rule="evenodd" d="M21.75 5V17C21.75 18.26 21.25 19.468 20.359 20.359C19.468 21.25 18.26 21.75 17 21.75H5C3.74 21.75 2.532 21.25 1.641 20.359C0.75 19.468 0.25 18.26 0.25 17V5C0.25 3.74 0.75 2.532 1.641 1.641C2.532 0.75 3.74 0.25 5 0.25H17C18.26 0.25 19.468 0.75 20.359 1.641C21.25 2.532 21.75 3.74 21.75 5ZM20.25 5C20.25 4.138 19.908 3.311 19.298 2.702C18.689 2.092 17.862 1.75 17 1.75H5C4.138 1.75 3.311 2.092 2.702 2.702C2.092 3.311 1.75 4.138 1.75 5V17C1.75 17.862 2.092 18.689 2.702 19.298C3.311 19.908 4.138 20.25 5 20.25H17C17.862 20.25 18.689 19.908 19.298 19.298C19.908 18.689 20.25 17.862 20.25 17V5Z" fill="#F9F7F7"/>
<path fill-rule="evenodd" clip-rule="evenodd" d="M5.52999 12.53C5.23799 12.823 4.76199 12.823 4.46999 12.53C4.17699 12.238 4.17699 11.762 4.46999 11.47L6.46999 9.46999C6.76199 9.17699 7.23799 9.17699 7.52999 9.46999C7.82299 9.76199 7.82299 10.238 7.52999 10.53L5.52999 12.53Z" fill="#F9F7F7"/>
<path fill-rule="evenodd" clip-rule="evenodd" d="M7.52999 11.47C7.82299 11.762 7.82299 12.238 7.52999 12.53C7.23799 12.823 6.76199 12.823 6.46999 12.53L4.46999 10.53C4.17699 10.238 4.17699 9.76199 4.46999 9.46999C4.76199 9.17699 5.23799 9.17699 5.52999 9.46999L7.52999 11.47Z" fill="#F9F7F7"/>
<path fill-rule="evenodd" clip-rule="evenodd" d="M4.46999 6.02999C4.17699 5.73799 4.17699 5.26199 4.46999 4.96999C4.76199 4.67699 5.23799 4.67699 5.52999 4.96999L5.99999 5.43899L7.46999 3.96999C7.76199 3.67699 8.23799 3.67699 8.52999 3.96999C8.82299 4.26199 8.82299 4.73799 8.52999 5.02999L6.52999 7.02999C6.23699 7.32299 5.76299 7.32299 5.46999 7.02999L4.46999 6.02999Z" fill="#F9F7F7"/>
<path fill-rule="evenodd" clip-rule="evenodd" d="M4.46999 17.03C4.17699 16.738 4.17699 16.262 4.46999 15.97C4.76199 15.677 5.23799 15.677 5.52999 15.97L5.99999 16.439L7.46999 14.97C7.76199 14.677 8.23799 14.677 8.52999 14.97C8.82299 15.262 8.82299 15.738 8.52999 16.03L6.52999 18.03C6.23699 18.323 5.76299 18.323 5.46999 18.03L4.46999 17.03Z" fill="#F9F7F7"/>
<path fill-rule="evenodd" clip-rule="evenodd" d="M11 6.25C10.586 6.25 10.25 5.914 10.25 5.5C10.25 5.086 10.586 4.75 11 4.75H17C17.414 4.75 17.75 5.086 17.75 5.5C17.75 5.914 17.414 6.25 17 6.25H11Z" fill="#F9F7F7"/>
<path fill-rule="evenodd" clip-rule="evenodd" d="M11 17.25C10.586 17.25 10.25 16.914 10.25 16.5C10.25 16.086 10.586 15.75 11 15.75H17C17.414 15.75 17.75 16.086 17.75 16.5C17.75 16.914 17.414 17.25 17 17.25H11Z" fill="#F9F7F7"/>
<path fill-rule="evenodd" clip-rule="evenodd" d="M11 11.75C10.586 11.75 10.25 11.414 10.25 11C10.25 10.586 10.586 10.25 11 10.25H17C17.414 10.25 17.75 10.586 17.75 11C17.75 11.414 17.414 11.75 17 11.75H11Z" fill="#F9F7F7"/>
</svg>
