<svg width="22" height="40" viewBox="0 0 22 40" fill="none" xmlns="http://www.w3.org/2000/svg">
<g clip-path="url(#clip0_314_3)">
<path d="M20.5733 -0.0197449C18.1836 -0.0127425 15.4245 1.0766 13.7137 2.86223L6.45844 10.0877C6.29371 10.2517 6.25755 10.4998 6.37106 10.6999C7.15555 12.3134 8.26448 13.8459 9.89469 14.6891L10.9524 15.2613C11.1533 15.3744 11.4024 15.3374 11.5671 15.1743L18.8224 7.94888C20.2317 6.54341 21.1708 4.77087 21.5376 2.81925C21.7385 1.53084 22.0629 0.140349 20.5753 -0.0186796L20.5733 -0.0197449ZM15.3893 6.28045C13.8223 4.6179 16.1728 2.27119 17.8442 3.83564C19.4152 5.50019 17.0587 7.84003 15.3893 6.28045Z" fill="#F9F7F7"/>
<path d="M5.91027 12.0111L5.08761 12.8314C4.73605 13.1815 4.65569 13.7277 4.89375 14.1608L5.07255 14.4849C5.55168 15.3592 6.27189 16.0775 7.15077 16.5546L7.47321 16.7297C7.91215 16.9698 8.46058 16.8897 8.81215 16.5406L9.63881 15.7174C9.32644 15.5533 9.00902 15.3792 8.72074 15.1742C7.53145 14.3839 6.56817 13.2725 5.91119 12.011L5.91027 12.0111Z" fill="#F9F7F7"/>
<path d="M5.88813 9.19834C6.5772 8.51311 11.1907 3.91659 11.7602 3.35039L9.97531 3.21935C7.82074 3.06229 5.70931 3.84555 4.1806 5.36905L0.437884 9.09636C0.120467 9.39347 0.34045 9.96564 0.778393 9.97466L5.29639 10.1967C5.34963 9.80561 5.5927 9.46248 5.88903 9.19841L5.88813 9.19834Z" fill="#F9F7F7"/>
<path d="M18.3315 9.89462C17.7941 10.4338 13.1233 15.0793 12.4594 15.7426C12.1942 16.0387 11.8486 16.2798 11.4569 16.3328L11.6799 20.8322C11.6889 21.2663 12.2625 21.4884 12.5618 21.1713L16.3045 17.444C17.8333 15.9215 18.6208 13.8188 18.4631 11.6731L18.3315 9.89552L18.3315 9.89462Z" fill="#F9F7F7"/>
<path d="M16.1218 5.55113C16.7807 6.18635 17.7551 5.22101 17.1132 4.56379C16.4533 3.92458 15.484 4.89591 16.1218 5.55113Z" fill="#F9F7F7"/>
<path d="M4.58957 16.2358C4.79147 16.0347 4.79147 15.7086 4.58957 15.5075C4.38767 15.3065 4.06022 15.3065 3.85831 15.5075L2.24615 17.113C2.04425 17.3141 2.04425 17.6402 2.24615 17.8413C2.44805 18.0424 2.7755 18.0424 2.97741 17.8413L4.58957 16.2358Z" fill="#F9F7F7"/>
<path d="M5.39422 17.036L2.92022 19.4998C2.71832 19.7009 2.71832 20.027 2.92022 20.2281C3.12212 20.4291 3.44958 20.4291 3.65149 20.2281L6.12548 17.7642C6.32738 17.5632 6.32738 17.2371 6.12548 17.036C5.92358 16.8349 5.59613 16.8349 5.39422 17.036Z" fill="#F9F7F7"/>
</g>
<path d="M5.376 37.664V38H3.012V37.664L3.672 37.58C3.752 37.564 3.812 37.548 3.852 37.532C3.9 37.508 3.952 37.46 4.008 37.388C4.072 37.308 4.16 37.176 4.272 36.992L6.084 34.112L4.308 30.848C4.212 30.664 4.14 30.536 4.092 30.464C4.044 30.384 3.996 30.332 3.948 30.308C3.908 30.284 3.844 30.268 3.756 30.26L3.096 30.176V29.84H6.528V30.176L5.868 30.26C5.748 30.276 5.688 30.312 5.688 30.368C5.688 30.416 5.76 30.576 5.904 30.848L7.104 33.056L8.484 30.848C8.652 30.576 8.736 30.416 8.736 30.368C8.744 30.312 8.684 30.276 8.556 30.26L7.896 30.176V29.84H10.26V30.176L9.6 30.26C9.52 30.268 9.456 30.284 9.408 30.308C9.368 30.332 9.32 30.384 9.264 30.464C9.208 30.536 9.12 30.664 9 30.848L7.344 33.5L9.228 36.992C9.324 37.168 9.396 37.296 9.444 37.376C9.492 37.456 9.54 37.508 9.588 37.532C9.636 37.548 9.7 37.564 9.78 37.58L10.44 37.664V38H7.02V37.664L7.68 37.58C7.808 37.564 7.872 37.532 7.872 37.484C7.872 37.428 7.796 37.264 7.644 36.992L6.312 34.544L4.788 36.992C4.62 37.264 4.532 37.428 4.524 37.484C4.524 37.532 4.588 37.564 4.716 37.58L5.376 37.664ZM14.2811 34.028H13.9571V33.608H14.2811C14.8491 33.608 15.2491 33.44 15.4811 33.104C15.7211 32.768 15.8411 32.336 15.8411 31.808C15.8411 30.696 15.4771 30.14 14.7491 30.14C14.3011 30.14 13.9851 30.336 13.8011 30.728C13.6251 31.12 13.5771 31.676 13.6571 32.396L12.2171 32.204C12.1451 31.772 12.1851 31.368 12.3371 30.992C12.4971 30.616 12.7771 30.312 13.1771 30.08C13.5851 29.84 14.1131 29.72 14.7611 29.72C15.3931 29.72 15.9011 29.82 16.2851 30.02C16.6691 30.212 16.9491 30.468 17.1251 30.788C17.3091 31.1 17.4011 31.44 17.4011 31.808C17.4011 32.368 17.2091 32.82 16.8251 33.164C16.4411 33.5 15.8931 33.716 15.1811 33.812C15.9251 33.908 16.4931 34.132 16.8851 34.484C17.2851 34.836 17.4851 35.328 17.4851 35.96C17.4851 36.592 17.2451 37.112 16.7651 37.52C16.2851 37.92 15.5691 38.12 14.6171 38.12C13.9851 38.12 13.4451 37.976 12.9971 37.688C12.5571 37.392 12.2771 36.904 12.1571 36.224L13.0091 35.996C13.0891 36.604 13.2571 37.04 13.5131 37.304C13.7771 37.568 14.1091 37.7 14.5091 37.7C15.0051 37.7 15.3651 37.556 15.5891 37.268C15.8131 36.972 15.9251 36.536 15.9251 35.96C15.9251 35.392 15.8011 34.928 15.5531 34.568C15.3051 34.208 14.8811 34.028 14.2811 34.028Z" fill="#F9F7F7"/>
<defs>
<clipPath id="clip0_314_3">
<rect width="22" height="22" fill="white"/>
</clipPath>
</defs>
</svg>
