<svg width="41" height="47" viewBox="0 0 41 47" fill="none" xmlns="http://www.w3.org/2000/svg">
<path d="M35.4062 16.8857H22.1562V13.3394C23.7175 12.9361 25.0782 11.9769 25.9832 10.6416C26.8882 9.30631 27.2754 7.68662 27.0722 6.08613C26.869 4.48564 26.0894 3.01423 24.8795 1.94771C23.6696 0.881191 22.1125 0.292786 20.5 0.292786C18.8875 0.292786 17.3304 0.881191 16.1205 1.94771C14.9106 3.01423 14.131 4.48564 13.9278 6.08613C13.7246 7.68662 14.1118 9.30631 15.0168 10.6416C15.9218 11.9769 17.2825 12.9361 18.8438 13.3394V16.8857H5.59375C4.27596 16.8857 3.01213 17.4095 2.08031 18.3418C1.14849 19.2742 0.625 20.5387 0.625 21.8572V41.7429C0.625 43.0614 1.14849 44.3259 2.08031 45.2582C3.01213 46.1905 4.27596 46.7143 5.59375 46.7143H35.4062C36.724 46.7143 37.9879 46.1905 38.9197 45.2582C39.8515 44.3259 40.375 43.0614 40.375 41.7429V21.8572C40.375 20.5387 39.8515 19.2742 38.9197 18.3418C37.9879 17.4095 36.724 16.8857 35.4062 16.8857ZM17.1875 6.94287C17.1875 6.28737 17.3818 5.64659 17.7458 5.10155C18.1097 4.55652 18.6271 4.13172 19.2324 3.88087C19.8376 3.63002 20.5037 3.56439 21.1462 3.69227C21.7888 3.82015 22.379 4.13581 22.8423 4.59932C23.3056 5.06283 23.621 5.65338 23.7489 6.29629C23.8767 6.9392 23.8111 7.60559 23.5604 8.21119C23.3096 8.8168 22.8851 9.33442 22.3403 9.6986C21.7956 10.0628 21.1552 10.2572 20.5 10.2572C19.6215 10.2572 18.7789 9.90798 18.1577 9.28643C17.5365 8.66488 17.1875 7.82188 17.1875 6.94287ZM37.0625 41.7429C37.0625 42.1824 36.888 42.6039 36.5774 42.9146C36.2668 43.2254 35.8455 43.4 35.4062 43.4H5.59375C5.15449 43.4 4.73321 43.2254 4.4226 42.9146C4.112 42.6039 3.9375 42.1824 3.9375 41.7429V21.8572C3.9375 21.4177 4.112 20.9962 4.4226 20.6854C4.73321 20.3746 5.15449 20.2 5.59375 20.2H35.4062C35.8455 20.2 36.2668 20.3746 36.5774 20.6854C36.888 20.9962 37.0625 21.4177 37.0625 21.8572V41.7429ZM30.4375 28.4857C30.4375 29.1412 30.2432 29.782 29.8792 30.327C29.5153 30.8721 28.9979 31.2969 28.3926 31.5477C27.7874 31.7986 27.1213 31.8642 26.4788 31.7363C25.8362 31.6084 25.246 31.2928 24.7827 30.8293C24.3194 30.3658 24.004 29.7752 23.8761 29.1323C23.7483 28.4894 23.8139 27.823 24.0646 27.2174C24.3154 26.6118 24.7399 26.0942 25.2847 25.73C25.8294 25.3658 26.4698 25.1714 27.125 25.1714C28.0035 25.1714 28.8461 25.5206 29.4673 26.1422C30.0885 26.7637 30.4375 27.6067 30.4375 28.4857ZM13.875 31.8C13.2198 31.8 12.5794 31.6056 12.0347 31.2415C11.4899 30.8773 11.0654 30.3597 10.8146 29.7541C10.5639 29.1484 10.4983 28.4821 10.6261 27.8391C10.754 27.1962 11.0694 26.6057 11.5327 26.1422C11.996 25.6787 12.5862 25.363 13.2288 25.2351C13.8713 25.1072 14.5374 25.1729 15.1426 25.4237C15.7479 25.6746 16.2653 26.0994 16.6292 26.6444C16.9932 27.1894 17.1875 27.8302 17.1875 28.4857C17.1875 29.3647 16.8385 30.2077 16.2173 30.8293C15.5961 31.4508 14.7535 31.8 13.875 31.8ZM28.7812 36.7714C28.7812 37.2109 28.6068 37.6324 28.2961 37.9432C27.9855 38.254 27.5643 38.4286 27.125 38.4286H13.875C13.4357 38.4286 13.0145 38.254 12.7039 37.9432C12.3932 37.6324 12.2188 37.2109 12.2188 36.7714C12.2188 36.3319 12.3932 35.9104 12.7039 35.5997C13.0145 35.2889 13.4357 35.1143 13.875 35.1143H27.125C27.5643 35.1143 27.9855 35.2889 28.2961 35.5997C28.6068 35.9104 28.7812 36.3319 28.7812 36.7714Z" fill="#64FFFF "/>
</svg>
