<svg width="22" height="22" viewBox="0 0 22 22" fill="none" xmlns="http://www.w3.org/2000/svg">
<g clip-path="url(#clip0_258_28)">
<path d="M20.5732 -0.0197754C18.1835 -0.012773 15.4244 1.07657 13.7136 2.8622L6.45832 10.0876C6.29359 10.2517 6.25743 10.4998 6.37094 10.6998C7.15543 12.3134 8.26436 13.8458 9.89456 14.6891L10.9523 15.2613C11.1532 15.3743 11.4023 15.3373 11.567 15.1743L18.8223 7.94885C20.2316 6.54338 21.1707 4.77084 21.5375 2.81922C21.7383 1.53081 22.0628 0.140318 20.5752 -0.0187101L20.5732 -0.0197754ZM15.3892 6.28042C13.8222 4.61787 16.1726 2.27116 17.8441 3.8356C19.4151 5.50015 17.0586 7.84 15.3892 6.28042Z" fill="#F9F7F7"/>
<path d="M5.91014 12.0111L5.08749 12.8314C4.73593 13.1815 4.65557 13.7277 4.89363 14.1608L5.07242 14.4849C5.55156 15.3592 6.27176 16.0775 7.15065 16.5546L7.47308 16.7296C7.91203 16.9697 8.46046 16.8897 8.81203 16.5406L9.63869 15.7173C9.32631 15.5533 9.0089 15.3792 8.72061 15.1741C7.53133 14.3839 6.56804 13.2725 5.91107 12.011L5.91014 12.0111Z" fill="#F9F7F7"/>
<path d="M5.88825 9.19831C6.57732 8.51308 11.1908 3.91656 11.7604 3.35036L9.97543 3.21932C7.82086 3.06226 5.70943 3.84552 4.18072 5.36902L0.438007 9.09633C0.120589 9.39344 0.340572 9.96561 0.778515 9.97462L5.29651 10.1967C5.34975 9.80558 5.59282 9.46245 5.88915 9.19838L5.88825 9.19831Z" fill="#F9F7F7"/>
<path d="M18.3316 9.89459C17.7942 10.4338 13.1234 15.0793 12.4595 15.7425C12.1943 16.0386 11.8488 16.2797 11.457 16.3327L11.68 20.8321C11.6891 21.2663 12.2626 21.4884 12.5619 21.1713L16.3047 17.4439C17.8335 15.9214 18.621 13.8188 18.4632 11.6731L18.3317 9.89549L18.3316 9.89459Z" fill="#F9F7F7"/>
<path d="M16.1217 5.55116C16.7806 6.18638 17.755 5.22104 17.1131 4.56382C16.4532 3.92461 15.4839 4.89594 16.1217 5.55116Z" fill="#F9F7F7"/>
<path d="M4.58957 16.2358C4.79147 16.0347 4.79147 15.7086 4.58957 15.5076C4.38767 15.3065 4.06022 15.3065 3.85831 15.5076L2.24615 17.1131C2.04425 17.3141 2.04425 17.6402 2.24615 17.8413C2.44805 18.0424 2.7755 18.0424 2.97741 17.8413L4.58957 16.2358Z" fill="#F9F7F7"/>
<path d="M5.39422 17.036L2.92022 19.4998C2.71832 19.7009 2.71832 20.027 2.92022 20.2281C3.12212 20.4291 3.44958 20.4291 3.65149 20.2281L6.12548 17.7642C6.32738 17.5632 6.32738 17.2371 6.12548 17.036C5.92358 16.8349 5.59613 16.8349 5.39422 17.036Z" fill="#F9F7F7"/>
</g>
<defs>
<clipPath id="clip0_258_28">
<rect width="22" height="22" fill="white"/>
</clipPath>
</defs>
</svg>
