<svg width="22" height="22" viewBox="0 0 22 22" fill="none" xmlns="http://www.w3.org/2000/svg">
<g clip-path="url(#clip0_482_6)">
<path d="M20.5733 -0.0197449C18.1836 -0.0127425 15.4245 1.0766 13.7137 2.86223L6.45844 10.0877C6.29371 10.2517 6.25755 10.4998 6.37106 10.6999C7.15555 12.3134 8.26448 13.8459 9.89469 14.6891L10.9524 15.2613C11.1533 15.3744 11.4024 15.3374 11.5671 15.1743L18.8224 7.94888C20.2317 6.54341 21.1708 4.77087 21.5376 2.81925C21.7385 1.53084 22.0629 0.140349 20.5753 -0.0186796L20.5733 -0.0197449ZM15.3893 6.28045C13.8223 4.6179 16.1728 2.27119 17.8442 3.83564C19.4152 5.50019 17.0587 7.84003 15.3893 6.28045Z" fill="#F9F7F7"/>
<path d="M5.91027 12.0111L5.08761 12.8314C4.73605 13.1815 4.65569 13.7277 4.89375 14.1608L5.07255 14.4849C5.55168 15.3592 6.27189 16.0775 7.15077 16.5546L7.47321 16.7297C7.91215 16.9698 8.46058 16.8897 8.81215 16.5406L9.63881 15.7174C9.32644 15.5533 9.00902 15.3792 8.72074 15.1742C7.53145 14.3839 6.56817 13.2725 5.91119 12.011L5.91027 12.0111Z" fill="#F9F7F7"/>
<path d="M5.88813 9.19834C6.5772 8.51311 11.1907 3.91659 11.7602 3.35039L9.97531 3.21935C7.82074 3.06229 5.70931 3.84555 4.1806 5.36905L0.437884 9.09636C0.120467 9.39347 0.34045 9.96564 0.778393 9.97465L5.29639 10.1967C5.34963 9.80561 5.5918 9.46241 5.88813 9.19834Z" fill="#64FFFF"/>
<path d="M18.3315 9.89462C17.7941 10.4338 13.1233 15.0793 12.4594 15.7426C12.1942 16.0387 11.8486 16.2798 11.4569 16.3328L11.6799 20.8322C11.6889 21.2663 12.2625 21.4884 12.5618 21.1713L16.3045 17.444C17.8333 15.9215 18.6208 13.8188 18.4631 11.6731L18.3315 9.89552L18.3315 9.89462Z" fill="#64FFFF"/>
<path d="M16.1218 5.55113C16.7807 6.18635 17.7551 5.22101 17.1132 4.56379C16.4533 3.92458 15.484 4.89591 16.1218 5.55113Z" fill="#64FFFF"/>
<path d="M4.58957 16.2358C4.79147 16.0347 4.79147 15.7086 4.58957 15.5075C4.38767 15.3065 4.06022 15.3065 3.85831 15.5075L2.24615 17.113C2.04425 17.3141 2.04425 17.6402 2.24615 17.8413C2.44805 18.0424 2.7755 18.0424 2.97741 17.8413L4.58957 16.2358Z" fill="#64FFFF"/>
<path d="M5.39422 17.036L2.92022 19.4998C2.71832 19.7009 2.71832 20.027 2.92022 20.2281C3.12212 20.4291 3.44958 20.4291 3.65149 20.2281L6.12548 17.7642C6.32738 17.5632 6.32738 17.2371 6.12548 17.036C5.92358 16.8349 5.59613 16.8349 5.39422 17.036Z" fill="#64FFFF"/>
</g>
<defs>
<clipPath id="clip0_482_6">
<rect width="22" height="22" fill="white"/>
</clipPath>
</defs>
</svg>
