<svg width="42" height="42" viewBox="0 0 42 42" fill="none" xmlns="http://www.w3.org/2000/svg">
<circle cx="21" cy="21" r="21" fill="#C9CDDA"/>
<circle cx="21" cy="21" r="18" stroke="url(#paint0_linear_1_78)" stroke-width="6"/>
<path d="M16.04 29.2C14.8133 29.2 13.7733 28.94 12.92 28.42C12.0667 27.8867 11.42 27.14 10.98 26.18C10.54 25.22 10.32 24.1 10.32 22.82V21.56C10.32 20.28 10.5133 19.1667 10.9 18.22C11.3 17.26 11.8933 16.52 12.68 16C13.4667 15.4667 14.4533 15.2 15.64 15.2C16.6533 15.2 17.5 15.4 18.18 15.8C18.86 16.1867 19.36 16.7067 19.68 17.36C20.0133 18 20.1533 18.7 20.1 19.46L17.76 20.04C17.8933 18.7067 17.7533 17.6867 17.34 16.98C16.94 16.26 16.34 15.9 15.54 15.9C14.6867 15.9 14.0267 16.26 13.56 16.98C13.1067 17.7 12.88 18.8933 12.88 20.56V23.82C12.88 25.4733 13.14 26.6667 13.66 27.4C14.18 28.1333 14.9733 28.5 16.04 28.5C16.48 28.5 16.8867 28.42 17.26 28.26C17.6467 28.1 17.9667 27.8267 18.22 27.44C18.4867 27.04 18.6533 26.48 18.72 25.76L20.16 26.14C19.9733 26.8867 19.6733 27.4867 19.26 27.94C18.8467 28.3933 18.36 28.72 17.8 28.92C17.2533 29.1067 16.6667 29.2 16.04 29.2ZM21.7936 15.96V15.4H27.8136C29.2803 15.4 30.3736 15.74 31.0936 16.42C31.8269 17.0867 32.1936 17.98 32.1936 19.1V19.56C32.1936 20.68 31.8269 21.58 31.0936 22.26C30.3736 22.94 29.2803 23.28 27.8136 23.28H25.7336V27.32C25.7336 27.7733 25.7536 28.0467 25.7936 28.14C25.8336 28.22 25.9603 28.2733 26.1736 28.3L27.6736 28.44V29H21.7936V28.44L22.8936 28.3C23.1069 28.2733 23.2336 28.22 23.2736 28.14C23.3136 28.0467 23.3336 27.7733 23.3336 27.32V17.08C23.3336 16.6267 23.3136 16.36 23.2736 16.28C23.2336 16.1867 23.1069 16.1267 22.8936 16.1L21.7936 15.96ZM27.8136 16.1H25.7336V22.58H27.8136C28.4003 22.58 28.8469 22.3467 29.1536 21.88C29.4736 21.4133 29.6336 20.7733 29.6336 19.96V18.7C29.6336 17.8867 29.4736 17.2533 29.1536 16.8C28.8469 16.3333 28.4003 16.1 27.8136 16.1Z" fill="#18192C"/>
<defs>
<linearGradient id="paint0_linear_1_78" x1="21" y1="0" x2="21" y2="42" gradientUnits="userSpaceOnUse">
<stop stop-color="#323342"/>
<stop offset="0.161949" stop-color="#808192"/>
<stop offset="0.63" stop-color="#19191B"/>
<stop offset="0.815" stop-color="#99999E"/>
<stop offset="0.93" stop-color="#323342"/>
</linearGradient>
</defs>
</svg>
