<svg width="22" height="13" viewBox="0 0 22 13" fill="none" xmlns="http://www.w3.org/2000/svg">
<path d="M21.4602 0.172426L21.8423 0.589194C21.9434 0.69846 22 0.847139 22 1.00227C22 1.15741 21.9434 1.30609 21.8423 1.41535L11.3821 12.8276C11.2812 12.938 11.1445 13 11.0016 13C10.859 13 10.722 12.938 10.6212 12.8276L0.15767 1.41535C0.0566438 1.30609 0 1.15741 0 1.00227C0 0.847139 0.0566438 0.69846 0.15767 0.589194L0.539793 0.172426C0.640608 0.0620095 0.77756 0 0.920221 0C1.06309 0 1.20005 0.0620095 1.30087 0.172426L10.9999 10.7508L20.6989 0.172426C20.7997 0.0620095 20.9367 0 21.0795 0C21.2222 0 21.3591 0.0620095 21.46 0.172426H21.4602Z" fill="#F9F7F7"/>
</svg>
