<svg width="17" height="23" viewBox="0 0 17 23" fill="none" xmlns="http://www.w3.org/2000/svg">
<mask id="path-1-inside-1_1_68" fill="white">
<path fill-rule="evenodd" clip-rule="evenodd" d="M11.6388 0.903442L16.5352 5.79987L10.4154 11.9196L16.4613 17.9655L11.5574 22.8695L0.631439 11.9435L0.638443 11.9365L0.62207 11.9201L11.6388 0.903442ZM7 22H0V23H7V22Z"/>
</mask>
<path fill-rule="evenodd" clip-rule="evenodd" d="M11.6388 0.903442L16.5352 5.79987L10.4154 11.9196L16.4613 17.9655L11.5574 22.8695L0.631439 11.9435L0.638443 11.9365L0.62207 11.9201L11.6388 0.903442ZM7 22H0V23H7V22Z" fill="#FDFFFE"/>
<path d="M16.5352 5.79987L17.2423 6.50697L17.9494 5.79987L17.2423 5.09276L16.5352 5.79987ZM11.6388 0.903442L12.3459 0.196336L11.6388 -0.510771L10.9317 0.196336L11.6388 0.903442ZM10.4154 11.9196L9.70833 11.2125L9.00122 11.9196L9.70833 12.6267L10.4154 11.9196ZM16.4613 17.9655L17.1684 18.6726L17.8755 17.9655L17.1684 17.2584L16.4613 17.9655ZM11.5574 22.8695L10.8503 23.5766L11.5574 24.2837L12.2645 23.5766L11.5574 22.8695ZM0.631439 11.9435L-0.0756676 11.2364L-0.782774 11.9435L-0.0756676 12.6506L0.631439 11.9435ZM0.638443 11.9365L1.34555 12.6436L2.05266 11.9365L1.34555 11.2294L0.638443 11.9365ZM0.62207 11.9201L-0.0850365 11.213L-0.792143 11.9201L-0.0850365 12.6272L0.62207 11.9201ZM0 22V21H-1V22H0ZM7 22H8V21H7V22ZM0 23H-1V24H0V23ZM7 23V24H8V23H7ZM17.2423 5.09276L12.3459 0.196336L10.9317 1.61055L15.8281 6.50697L17.2423 5.09276ZM11.1225 12.6267L17.2423 6.50697L15.8281 5.09276L9.70833 11.2125L11.1225 12.6267ZM17.1684 17.2584L11.1225 11.2125L9.70833 12.6267L15.7542 18.6726L17.1684 17.2584ZM12.2645 23.5766L17.1684 18.6726L15.7542 17.2584L10.8503 22.1624L12.2645 23.5766ZM-0.0756676 12.6506L10.8503 23.5766L12.2645 22.1624L1.33855 11.2364L-0.0756676 12.6506ZM-0.0686638 11.2294L-0.0756676 11.2364L1.33855 12.6506L1.34555 12.6436L-0.0686638 11.2294ZM-0.0850365 12.6272L-0.0686638 12.6436L1.34555 11.2294L1.32918 11.213L-0.0850365 12.6272ZM10.9317 0.196336L-0.0850365 11.213L1.32918 12.6272L12.3459 1.61055L10.9317 0.196336ZM0 23H7V21H0V23ZM1 23V22H-1V23H1ZM7 22H0V24H7V22ZM6 22V23H8V22H6Z" fill="#64FFFF" mask="url(#path-1-inside-1_1_68)"/>
</svg>
