<svg width="22" height="22" viewBox="0 0 22 22" fill="none" xmlns="http://www.w3.org/2000/svg">
<g clip-path="url(#clip0_1_860)">
<path d="M11.1192 5.86945C8.42315 5.86945 6.17627 8.05751 6.17627 10.7816C6.17627 13.5057 8.423 15.6938 11.1192 15.6938C13.8154 15.6938 16.0622 13.461 16.0622 10.7816C16.0622 8.10218 13.8154 5.86945 11.1192 5.86945Z" fill="#F9F7F7"/>
<path d="M19.1178 -0.292725H3.1211C1.41358 -0.292725 -0.0693359 1.13622 -0.0693359 2.87783V18.7303C-0.0693359 20.4272 1.36857 21.9009 3.1211 21.9009H19.073C20.7805 21.9009 22.2634 20.4719 22.2634 18.7303V2.83325C22.2634 1.13637 20.8255 -0.292725 19.1178 -0.292725ZM11.1196 16.5866C7.92917 16.5866 5.27825 13.9966 5.27825 10.7816C5.27825 7.56664 7.88445 4.97667 11.1196 4.97667C14.3548 4.97667 16.961 7.56664 16.961 10.7816C16.961 13.9966 14.3548 16.5866 11.1196 16.5866ZM19.073 3.86009C18.4888 3.86009 18.0844 3.45821 18.0844 2.87769C18.0844 2.34183 18.5337 1.89528 19.073 1.89528C19.5673 1.89528 20.0615 2.34183 20.0615 2.87769C20.0166 3.45818 19.6122 3.86009 19.073 3.86009Z" fill="#F9F7F7"/>
</g>
<defs>
<clipPath id="clip0_1_860">
<rect width="22" height="22" fill="white"/>
</clipPath>
</defs>
</svg>
