<svg width="22" height="20" viewBox="0 0 22 20" fill="none" xmlns="http://www.w3.org/2000/svg">
<path d="M21.5846 0.274942C21.2093 -0.0430594 20.6199 -0.0885595 20.0104 0.155941H20.0094C19.3685 0.412942 1.86576 7.91496 1.15324 8.22147C1.02365 8.26647 -0.108174 8.68847 0.00841053 9.62847C0.112486 10.476 1.02215 10.827 1.13323 10.8675L5.58295 12.39C5.87817 13.372 6.96646 16.995 7.20713 17.769C7.35724 18.2515 7.60192 18.8855 8.03073 19.016C8.407 19.161 8.78127 19.0285 9.02345 18.8385L11.7439 16.317L16.1356 19.7395L16.2402 19.802C16.5384 19.934 16.8241 20 17.0968 20C17.3075 20 17.5096 19.9605 17.7027 19.8815C18.3607 19.6115 18.6239 18.985 18.6514 18.914L21.9318 1.87545C22.132 0.965444 21.8538 0.502442 21.5846 0.274942ZM9.5073 12.999L8.00621 16.999L6.50512 11.999L18.0135 3.49895L9.5073 12.999Z" fill="#F9F7F7"/>
</svg>
