<svg width="22" height="18" viewBox="0 0 22 18" fill="none" xmlns="http://www.w3.org/2000/svg">
<path d="M21.5015 2.0727C21.1558 2.22599 20.8005 2.35537 20.4374 2.4604C20.8673 1.97427 21.195 1.40227 21.3951 0.776336C21.4399 0.636033 21.3934 0.482459 21.2781 0.390698C21.1629 0.298865 21.0029 0.287866 20.8761 0.36302C20.105 0.820336 19.2731 1.14899 18.4009 1.34117C17.5222 0.482601 16.3288 -0.00601196 15.0951 -0.00601196C12.491 -0.00601196 10.3723 2.11259 10.3723 4.71668C10.3723 4.92177 10.3853 5.12574 10.411 5.32686C7.17947 5.04313 4.17519 3.4548 2.11216 0.924162C2.03863 0.833962 1.92537 0.785349 1.80941 0.794646C1.69338 0.80373 1.58912 0.869162 1.53051 0.969724C1.11208 1.6877 0.890873 2.50887 0.890873 3.34438C0.890873 4.48234 1.29716 5.56205 2.01486 6.40571C1.79663 6.33013 1.58487 6.23567 1.38275 6.12347C1.27424 6.06308 1.14181 6.064 1.03401 6.12581C0.926144 6.18763 0.858512 6.30132 0.855673 6.42558C0.855176 6.44652 0.855176 6.46745 0.855176 6.48867C0.855176 8.18728 1.76938 9.71657 3.16709 10.5501C3.04701 10.5381 2.92701 10.5207 2.80778 10.4979C2.68487 10.4744 2.55847 10.5175 2.47558 10.6113C2.39255 10.7049 2.36509 10.8355 2.40334 10.9547C2.92069 12.57 4.25269 13.758 5.86294 14.1203C4.5274 14.9568 3.0001 15.3949 1.3968 15.3949C1.06226 15.3949 0.725802 15.3753 0.396512 15.3363C0.232931 15.3168 0.0765183 15.4134 0.0208086 15.569C-0.0349011 15.7246 0.0241441 15.8981 0.163312 15.9873C2.22301 17.308 4.60461 18.006 7.05052 18.006C11.8589 18.006 14.8668 15.7386 16.5434 13.8365C18.6342 11.4646 19.8332 8.32525 19.8332 5.22332C19.8332 5.09373 19.8312 4.96287 19.8273 4.83243C20.6521 4.21096 21.3623 3.45885 21.9402 2.59439C22.028 2.4631 22.0185 2.28958 21.9168 2.16872C21.8152 2.04779 21.646 2.00869 21.5015 2.0727Z" fill="#F9F7F7"/>
</svg>
