<svg width="22" height="22" viewBox="0 0 22 22" fill="none" xmlns="http://www.w3.org/2000/svg">
<g clip-path="url(#clip0_1_871)">
<path d="M21.9234 6.37847V10.5799C21.9234 10.6902 21.9017 10.7995 21.8594 10.9014C21.8172 11.0034 21.7553 11.096 21.6773 11.174C21.5993 11.2521 21.5066 11.314 21.4047 11.3562C21.3027 11.3984 21.1935 11.4201 21.0831 11.4201C19.3278 11.424 17.5978 11.002 16.0414 10.1904L16.0414 13.941C16.0412 15.4595 15.6079 16.9465 14.7922 18.2274C13.9766 19.5083 12.8125 20.53 11.4366 21.1726C10.0607 21.8151 8.53001 22.0519 7.02426 21.8551C5.51852 21.6583 4.10014 21.0361 2.9356 20.0615C1.77105 19.0869 0.908658 17.8003 0.449621 16.3528C-0.00941645 14.9053 -0.0460498 13.3569 0.34402 11.8893C0.73409 10.4217 1.53468 9.09579 2.65183 8.06721C3.76898 7.03863 5.15634 6.35004 6.6511 6.08224C6.77202 6.06071 6.89618 6.06594 7.01486 6.09757C7.13354 6.12921 7.24384 6.18648 7.33799 6.26534C7.43214 6.34421 7.50786 6.44276 7.55981 6.55405C7.61176 6.66535 7.63868 6.78667 7.63867 6.90949L7.63862 11.2831C7.63863 11.442 7.59356 11.5976 7.50866 11.732C7.42375 11.8663 7.30249 11.9738 7.15894 12.042C6.81914 12.203 6.52877 12.4523 6.31813 12.7638C6.1075 13.0752 5.98431 13.4375 5.96144 13.8129C5.93856 14.1882 6.01683 14.5628 6.18807 14.8975C6.35932 15.2323 6.61726 15.5149 6.93499 15.716C7.25273 15.9171 7.6186 16.0292 7.99444 16.0407C8.37028 16.0522 8.74231 15.9626 9.07171 15.7812C9.40111 15.5999 9.67582 15.3335 9.86715 15.0098C10.0585 14.6861 10.1595 14.317 10.1595 13.941V0.496528C10.1595 0.38618 10.1812 0.276912 10.2235 0.174964C10.2657 0.0730151 10.3276 -0.0196178 10.4056 -0.0976454C10.4836 -0.175673 10.5763 -0.237567 10.6782 -0.279794C10.7802 -0.322021 10.8894 -0.343753 10.9998 -0.34375H15.2012C15.3115 -0.343753 15.4208 -0.322021 15.5227 -0.279794C15.6247 -0.237567 15.7173 -0.175673 15.7953 -0.0976454C15.8734 -0.0196178 15.9353 0.0730151 15.9775 0.174964C16.0197 0.276912 16.0415 0.38618 16.0414 0.496528C16.043 1.8332 16.5746 3.11469 17.5198 4.05986C18.465 5.00502 19.7464 5.53668 21.0831 5.53819C21.1935 5.53819 21.3027 5.55992 21.4047 5.60215C21.5066 5.64438 21.5993 5.70627 21.6773 5.7843C21.7553 5.86233 21.8172 5.95496 21.8594 6.05691C21.9017 6.15886 21.9234 6.26812 21.9234 6.37847Z" fill="#F9F7F7"/>
</g>
<defs>
<clipPath id="clip0_1_871">
<rect width="22" height="22" fill="white"/>
</clipPath>
</defs>
</svg>
