<svg width="17" height="17" viewBox="0 0 17 17" fill="none" xmlns="http://www.w3.org/2000/svg">
<path d="M16.7066 0.293C16.5191 0.105529 16.2648 0.000213623 15.9996 0.000213623C15.7344 0.000213623 15.4801 0.105529 15.2926 0.293L8.99959 6.586L2.70659 0.293C2.51799 0.110842 2.26539 0.0100473 2.00319 0.0123258C1.74099 0.0146042 1.49018 0.119773 1.30477 0.305182C1.11937 0.49059 1.0142 0.741402 1.01192 1.0036C1.00964 1.2658 1.11044 1.5184 1.29259 1.707L7.58559 8L1.29259 14.293C1.19708 14.3852 1.1209 14.4956 1.06849 14.6176C1.01608 14.7396 0.988496 14.8708 0.987342 15.0036C0.986189 15.1364 1.01149 15.2681 1.06177 15.391C1.11205 15.5138 1.18631 15.6255 1.2802 15.7194C1.37409 15.8133 1.48574 15.8875 1.60864 15.9378C1.73154 15.9881 1.86321 16.0134 1.99599 16.0123C2.12877 16.0111 2.25999 15.9835 2.382 15.9311C2.504 15.8787 2.61435 15.8025 2.70659 15.707L8.99959 9.414L15.2926 15.707C15.4812 15.8892 15.7338 15.99 15.996 15.9877C16.2582 15.9854 16.509 15.8802 16.6944 15.6948C16.8798 15.5094 16.985 15.2586 16.9873 14.9964C16.9895 14.7342 16.8888 14.4816 16.7066 14.293L10.4136 8L16.7066 1.707C16.8941 1.51947 16.9994 1.26516 16.9994 1C16.9994 0.734836 16.8941 0.480528 16.7066 0.293Z" fill="#F20C10"/>
</svg>
