<svg width="64" height="46" viewBox="0 0 64 46" fill="none" xmlns="http://www.w3.org/2000/svg">
<path d="M2.06616 17C1.66786 17.7269 1.77573 18.6423 2.32339 19.2346C1.65127 18.8039 0.804889 18.9205 0.257232 19.5128C0.655528 18.7949 0.547656 17.8705 0 17.2782C0.672124 17.709 1.5185 17.5923 2.06616 17Z" fill="#F5F9FA"/>
<path d="M61.9002 29.9064L62.1325 29L62.1159 29.9333C62.1159 30.4539 62.423 30.9116 62.8876 31.0551L63.7257 31.3064L62.8627 31.2885C62.3815 31.2885 61.9583 31.6205 61.8255 32.1231L61.5932 33.0295L61.6098 32.0962C61.6098 31.5757 61.3028 31.118 60.8381 30.9744L60 30.7231L60.863 30.741C61.3442 30.741 61.7674 30.409 61.9002 29.9064Z" fill="#F5F9FA"/>
<path d="M51.8796 43.2654L51.4564 42L52.4604 42.7987C52.7425 43.0231 53.1076 43.0769 53.4396 42.9513L54.6096 42.4936L53.871 43.5795C53.6636 43.8846 53.6138 44.2795 53.73 44.6385L54.1532 45.9039L53.1491 45.1052C52.867 44.8808 52.5019 44.8269 52.17 44.9526L51 45.4103L51.7385 44.3244C51.946 44.0192 51.9957 43.6244 51.8796 43.2654Z" fill="#F5F9FA"/>
<circle cx="33" cy="21" r="21" fill="#C9CDDA"/>
<circle cx="33" cy="21" r="18" stroke="url(#paint0_linear_1411_3)" stroke-width="6"/>
<defs>
<linearGradient id="paint0_linear_1411_3" x1="33" y1="0" x2="33" y2="42" gradientUnits="userSpaceOnUse">
<stop stop-color="#323342"/>
<stop offset="0.161949" stop-color="#808192"/>
<stop offset="0.63" stop-color="#19191B"/>
<stop offset="0.815" stop-color="#99999E"/>
<stop offset="0.93" stop-color="#323342"/>
</linearGradient>
</defs>
</svg>
